# xmcd
#
# Track frame offsets: 
#        150
#        21352
#        47150
#        79386
#        106222
#        128281
#        153062
#        157193
#        180141
#        202374
#        225230
#        248581
#        276007
#
# Disc length: 3974 seconds
#
# Revision: 2
# Processed by: cddbd v1.5.2PL0 Copyright (c) Steve Scherf et al.
# Submitted via: ExactAudioCopy v1.1
#
DISCID=9b0f840d
DTITLE=Aynsley Lister - Eyes Wide Open
DYEAR=2016
DGENRE=Blues
TTITLE0=All Of Your Love
TTITLE1=Everything I Have To Give
TTITLE2=Il Grande Mafioso
TTITLE3=Won't Be Taken Down
TTITLE4=Time
TTITLE5=Dishevelled
TTITLE6=Troubled Soul (Intro)
TTITLE7=Kalina
TTITLE8=Handful Of Doubt
TTITLE9=Right As Rain
TTITLE10=Other Part Of Me
TTITLE11=Stay
TTITLE12=Hold You To It
EXTD=
EXTT0=
EXTT1=
EXTT2=
EXTT3=
EXTT4=
EXTT5=
EXTT6=
EXTT7=
EXTT8=
EXTT9=
EXTT10=
EXTT11=
EXTT12=
PLAYORDER=
